<?xml version="1.0" standalone="no"?>
<!DOCTYPE svg PUBLIC "-//W3C//DTD SVG 20010904//EN"
 "http://www.w3.org/TR/2001/REC-SVG-20010904/DTD/svg10.dtd">
<svg version="1.0" xmlns="http://www.w3.org/2000/svg"
 width="512.000000pt" height="512.000000pt" viewBox="0 0 512.000000 512.000000"
 preserveAspectRatio="xMidYMid meet">
<metadata>
Created by potrace 1.14, written by Peter Selinger 2001-2017
</metadata>
<g transform="translate(0.000000,512.000000) scale(0.100000,-0.100000)"
fill="#000000" stroke="none">
<path d="M2379 5116 c-2 -2 -35 -6 -74 -10 -38 -3 -97 -10 -130 -16 -33 -6
-76 -13 -95 -16 -106 -17 -413 -105 -434 -125 -6 -5 -16 -9 -23 -9 -8 0 -44
-14 -81 -31 -353 -164 -591 -331 -838 -589 -63 -66 -93 -100 -162 -186 -66
-80 -167 -235 -231 -353 -34 -62 -61 -114 -61 -116 0 -2 -15 -36 -34 -77 -54
-119 -134 -356 -150 -448 -2 -14 -7 -36 -10 -50 -44 -190 -65 -557 -44 -780
82 -864 619 -1645 1397 -2035 237 -119 518 -210 740 -241 20 -3 79 -11 131
-18 88 -12 497 -14 560 -3 14 3 45 8 70 11 25 4 92 16 150 27 58 12 116 23
130 26 39 7 316 101 369 124 480 216 859 531 1134 945 198 299 343 668 392
1004 3 19 7 44 10 55 29 141 27 537 -4 740 -130 854 -704 1608 -1486 1951 -44
20 -89 39 -100 44 -86 38 -365 119 -465 134 -19 3 -44 8 -56 10 -12 2 -45 7
-74 11 -29 4 -62 9 -74 12 -24 5 -452 14 -457 9z m426 -239 c11 -2 47 -8 80
-12 144 -16 369 -75 525 -137 551 -218 994 -631 1249 -1163 113 -235 172 -437
216 -740 10 -71 13 -398 4 -480 -17 -152 -24 -196 -59 -340 -131 -548 -475
-1046 -945 -1366 -258 -176 -584 -314 -860 -363 -16 -3 -39 -8 -50 -10 -109
-20 -190 -27 -375 -30 -317 -6 -604 46 -897 163 -656 261 -1169 827 -1366
1506 -30 103 -38 136 -49 200 0 6 -5 26 -10 45 -4 19 -11 60 -14 90 -3 30 -8
62 -11 70 -10 27 -11 384 -2 475 48 473 238 920 549 1289 84 100 278 279 405
374 131 98 382 231 559 297 106 39 330 99 410 110 27 3 52 8 56 10 3 2 44 7
90 10 47 4 86 9 88 10 6 5 385 -3 407 -8z"/>
<path d="M2487 4604 c-1 -1 -38 -4 -82 -8 -265 -20 -505 -85 -740 -201 -467
-229 -819 -609 -1008 -1091 -33 -84 -80 -236 -91 -294 -3 -14 -10 -52 -16 -85
-21 -107 -32 -235 -33 -375 -1 -295 73 -610 208 -885 52 -108 172 -306 195
-325 3 -3 27 -32 52 -65 56 -75 204 -223 295 -297 179 -147 429 -284 648 -357
269 -88 525 -118 820 -96 55 4 102 8 105 10 3 2 28 6 55 9 60 8 177 36 187 45
4 3 -8 60 -26 126 -19 66 -50 181 -70 255 -50 186 -68 253 -72 267 -2 9 -12 9
-36 2 -18 -5 -51 -12 -73 -15 -22 -3 -59 -10 -83 -14 -56 -10 -261 -10 -332 0
-137 20 -239 47 -354 96 -444 187 -754 591 -823 1069 -10 66 -9 317 0 380 89
576 529 1035 1092 1140 149 28 380 28 513 0 49 -10 87 -14 92 -9 5 5 23 61 39
124 17 63 39 149 51 190 11 41 33 127 50 191 16 64 32 123 35 131 12 30 -286
77 -513 81 -46 1 -84 2 -85 1z"/>
<path d="M3351 4408 c-13 -41 -122 -446 -215 -801 -38 -143 -102 -384 -142
-528 -19 -69 -36 -134 -39 -145 -2 -10 -8 -34 -14 -51 -7 -24 -6 -33 2 -34 7
-1 166 -2 353 -3 l342 -1 15 55 c9 30 28 100 43 155 14 55 31 117 38 139 l12
39 41 -89 c58 -125 94 -242 118 -379 3 -16 8 -69 11 -117 l7 -88 -1219 -2
-1219 -3 3 -45 c10 -165 33 -257 97 -396 39 -84 106 -193 138 -225 11 -12 184
-14 1010 -14 548 1 997 -2 997 -5 0 -18 -127 -185 -191 -251 -91 -94 -167
-155 -276 -221 -59 -37 -82 -56 -79 -67 3 -9 18 -65 34 -126 100 -381 136
-511 142 -518 10 -11 221 98 323 167 156 105 327 256 442 392 55 64 153 202
160 225 4 11 10 19 14 19 5 0 43 69 85 153 146 292 219 593 219 907 1 81 -11
279 -17 289 -2 3 -7 29 -10 56 -34 259 -176 604 -349 845 -150 210 -350 402
-559 537 -62 40 -290 163 -302 163 -2 0 -9 -15 -15 -32z"/>
</g>
</svg>
