<?xml version="1.0" encoding="UTF-8"?>
<svg width="48px" height="48px" viewBox="0 0 48 48" version="1.1" xmlns="http://www.w3.org/2000/svg" xmlns:xlink="http://www.w3.org/1999/xlink">
    <title>citra-app copy</title>
    <g id="Page-1" stroke="none" stroke-width="1" fill="none" fill-rule="evenodd">
        <g id="citra-app-copy" fill="#FFFFFF">
            <path d="M24,0 C37.2547598,0 48,10.7452402 48,24 C48,37.2547598 37.2547598,48 24,48 C10.7452402,48 0,37.2547598 0,24 C0,10.7452402 10.7452402,0 24,0 Z M24,2.16425665 C36.0594729,2.16425665 45.8357434,11.9405271 45.8357434,24 C45.8357434,36.0594729 36.0594729,45.8357434 24,45.8357434 C11.9405271,45.8357434 2.16425665,36.0594729 2.16425665,24 C2.16425665,11.9405271 11.9405271,2.16425665 24,2.16425665 Z" id="Shape" fill-opacity="0.8"></path>
            <path d="M13.9216795,24 L36.7508479,24 C36.7508479,21.7112632 36.1474171,19.5635114 35.091548,17.7067085 L34.1214355,21.3274399 L27.4828809,21.3274399 L31.4939984,6.35792326 C38.3533359,9.27537864 43.1631833,16.0757003 43.1631833,23.9999837 C43.1631833,31.9242671 38.3533195,38.724703 31.4938841,41.6420441 L29.8088883,35.3536665 C31.983789,34.2386999 33.7962036,32.5171517 35.0232268,30.412319 L16.225354,30.412319 C14.7865268,28.6699889 13.9216795,26.4360723 13.9216795,23.9999837 L13.9216795,24 Z" id="Path" fill-opacity="0.4"></path>
            <path d="M24,4.83680041 C25.7156874,4.83680041 27.3783339,5.06352569 28.9606602,5.48649697 L27.3007399,11.6815104 C26.2479073,11.4000465 25.1416094,11.2491358 24,11.2491358 C16.9579012,11.2491358 11.2491521,16.9578849 11.2491521,23.9999837 C11.2491521,31.0420825 16.9579012,36.7508316 24,36.7508316 C25.1416094,36.7508316 26.2478094,36.5999208 27.300642,36.3185712 L28.9606602,42.5134704 C27.378236,42.9364417 25.7157037,43.1631669 24,43.1631669 C13.4164289,43.1631669 4.83681674,34.5835384 4.83681674,23.9999837 C4.83681674,13.4164126 13.4164453,4.83680041 24,4.83680041 Z" id="Path" fill-opacity="0.8"></path>
        </g>
    </g>
</svg>